<?xml version="1.0" standalone="no"?><!DOCTYPE svg PUBLIC "-//W3C//DTD SVG 1.1//EN" "http://www.w3.org/Graphics/SVG/1.1/DTD/svg11.dtd"><svg t="1540879314529" class="icon" style="" viewBox="0 0 1024 1024" version="1.1" xmlns="http://www.w3.org/2000/svg" p-id="1472" xmlns:xlink="http://www.w3.org/1999/xlink" width="200" height="200"><defs><style type="text/css"></style></defs><path d="M713.188 163.284l147.528 147.528-147.528 147.529-147.53-147.529 147.53-147.528m0-67.274c-14.357 0-28.714 5.477-39.668 16.432L514.817 271.144c-21.908 21.909-21.908 57.427 0 79.336L673.52 509.182c10.954 10.955 25.31 16.432 39.667 16.432s28.714-5.477 39.669-16.432L911.558 350.48c21.909-21.911 21.909-57.427 0-79.336L752.857 112.442c-10.955-10.955-25.312-16.432-39.669-16.432zM376.54 142.488H152.108c-30.999 0-56.108 25.108-56.108 56.108v224.432c0 31 25.108 56.109 56.108 56.109H376.54c30.999 0 56.108-25.108 56.108-56.109V198.595c0-30.999-25.109-56.107-56.108-56.107z m448.864 448.863H600.972c-30.999 0-56.108 25.108-56.108 56.109v224.432c0 30.999 25.108 56.108 56.108 56.108h224.432c30.999 0 56.108-25.108 56.108-56.108V647.461c0-31.002-25.108-56.11-56.108-56.11z m-448.864 0H152.108C121.109 591.351 96 616.459 96 647.46v224.432C96 902.891 121.108 928 152.108 928H376.54c30.999 0 56.108-25.108 56.108-56.108V647.461c0-31.002-25.109-56.11-56.108-56.11z" p-id="1473"></path></svg>