<?xml version="1.0" standalone="no"?><!DOCTYPE svg PUBLIC "-//W3C//DTD SVG 1.1//EN" "http://www.w3.org/Graphics/SVG/1.1/DTD/svg11.dtd"><svg t="1540879354220" class="icon" style="" viewBox="0 0 1024 1024" version="1.1" xmlns="http://www.w3.org/2000/svg" p-id="1908" xmlns:xlink="http://www.w3.org/1999/xlink" width="200" height="200"><defs><style type="text/css"></style></defs><path d="M16.870102 310.355936h119.182975v268.761945H16.870102V310.355936z m386.34492 390.34492H282.433047s17.596996 157.576968 145.57897 323.153934c0 0 111.183977 4.799999 127.981974-40.793992 0 0 11.997998-30.395994-23.996995-69.589985C520.799998 895.071816 420.013019 809.483834 403.215022 700.699856zM835.954934 1.6C619.183978 259.962947 204.843063 275.159944 204.843063 275.159944v343.950929c490.329899 22.396995 632.70987 207.169958 632.70987 207.169958 189.572961-47.19199 169.575965-382.344922 169.575965-382.344922C1021.527896-43.192991 835.953934 1.6 835.953934 1.6z m0 0" p-id="1909"></path></svg>