<?xml version="1.0" encoding="UTF-8"?>
<svg width="530px" height="291px" viewBox="0 0 530 291" version="1.1" xmlns="http://www.w3.org/2000/svg" xmlns:xlink="http://www.w3.org/1999/xlink">
    <!-- Generator: Sketch 49.3 (51167) - http://www.bohemiancoding.com/sketch -->
    <title>Group 6</title>
    <desc>Created with Sketch.</desc>
    <defs></defs>
    <g id="EHR后台管理视觉效果" stroke="none" stroke-width="1" fill="none" fill-rule="evenodd">
        <g id="404页面" transform="translate(-475.000000, -156.000000)" fill-rule="nonzero">
            <g id="Group-2" transform="translate(474.000000, 156.000000)">
                <g id="Group-4">
                    <g id="Group-3" transform="translate(0.811881, 0.000000)">
                        <g id="Group-6" transform="translate(-0.000000, 0.000000)">
                            <path d="M264.704626,289.663366 C232.802432,289.663366 206.940594,263.75021 206.940594,231.784711 L206.940594,57.7904484 C208.114071,26.6982332 233.610546,2.0990099 264.663366,2.0990099 C295.716187,2.0990099 321.212662,26.6982332 322.386139,57.7904484 L322.386139,231.821459 C322.365945,263.740348 296.560277,289.617774 264.704626,289.663366 Z M264.704626,37.1286871 C253.315176,37.1388177 244.084725,46.3875848 244.074615,57.7996355 L244.074615,231.821459 C244.074615,243.237709 253.310986,252.492408 264.704626,252.492408 C276.098267,252.492408 285.334638,243.237709 285.334638,231.821459 L285.334638,57.7904484 C285.319475,46.3819857 276.090501,37.1388089 264.704626,37.1286871 Z" id="Shape" fill="#D9D9D9"></path>
                            <rect id="Rectangle-path" fill="#D9D9D9" x="148.168317" y="122.792079" width="36.7326733" height="166.871287"></rect>
                            <polygon id="Shape" fill="#D9D9D9" points="176.437179 0 137.691434 0 81 197.407584 81 231.940594 197.49505 231.940594 197.49505 194.790055 120.500772 194.790055"></polygon>
                            <polygon id="Shape" fill="#999999" points="184.90099 240.336634 148.168317 231.940594 184.90099 231.940594"></polygon>
                            <polygon id="Shape" fill="#D9D9D9" points="428.318367 0 389.572622 0 332.881188 197.407584 332.881188 231.940594 449.376238 231.940594 449.376238 194.790055 372.38196 194.790055"></polygon>
                            <rect id="Rectangle-path" fill="#D9D9D9" x="400.049505" y="129.089109" width="36.7326733" height="160.574257"></rect>
                            <polygon id="Shape" fill="#D9D9D9" points="368.146446 195.202732 372.38196 194.158416 449.376238 194.158416 449.376238 230.891089 332.881188 230.891089 332.881188 196.746503"></polygon>
                            <polygon id="Shape" fill="#999999" points="436.782178 240.336634 400.049505 231.940594 436.782178 231.940594"></polygon>
                            <rect id="Rectangle-path" fill="#999999" x="0.188118812" y="289" width="530" height="1.04950495"></rect>
                        </g>
                    </g>
                </g>
            </g>
        </g>
    </g>
</svg>