<?xml version="1.0" standalone="no"?><!DOCTYPE svg PUBLIC "-//W3C//DTD SVG 1.1//EN" "http://www.w3.org/Graphics/SVG/1.1/DTD/svg11.dtd"><svg t="1540879391431" class="icon" style="" viewBox="0 0 1024 1024" version="1.1" xmlns="http://www.w3.org/2000/svg" p-id="2127" xmlns:xlink="http://www.w3.org/1999/xlink" width="200" height="200"><defs><style type="text/css"></style></defs><path d="M900.43352 57.206704H124.138547C40.902793 57.206704 0.42905 98.395531 0.42905 180.630168v493.550838c0 82.234637 37.899441 121.135196 118.989944 121.135195h118.989945l-14.58771 125.568715c0 15.159777 8.437989 29.175419 21.738548 36.18324 6.149721 3.289385 12.728492 5.005587 19.450279 5.005587 8.008939 0 16.017877-2.288268 22.882681-6.864804L524.156425 795.173184h380.853631c82.377654 0 118.989944-38.900559 118.989944-121.135195v-493.407821c0-82.234637-41.188827-123.423464-123.56648-123.423464zM274.449162 485.827933c-32.750838 0-59.351955-26.744134-59.351955-59.494972 0-32.750838 26.601117-59.637989 59.351955-59.637989s59.351955 26.744134 59.351955 59.637989c0 32.893855-26.744134 59.494972-59.351955 59.494972z m237.693855 0c-32.893855 0-59.637989-26.744134-59.637989-59.494972 0-32.750838 26.744134-59.637989 59.637989-59.637989 32.893855 0 59.637989 26.744134 59.637989 59.637989 0 32.893855-26.887151 59.494972-59.637989 59.494972z m237.979888 0c-32.893855 0-59.637989-26.744134-59.637989-59.494972 0-32.750838 26.601117-59.637989 59.637989-59.637989 32.893855 0 59.637989 26.744134 59.637989 59.637989 0 32.893855-26.744134 59.494972-59.637989 59.494972z m0 0" p-id="2128"></path></svg>