<?xml version="1.0" encoding="UTF-8"?>
<svg width="429px" height="291px" viewBox="0 0 429 291" version="1.1" xmlns="http://www.w3.org/2000/svg" xmlns:xlink="http://www.w3.org/1999/xlink">
    <!-- Generator: Sketch 49.3 (51167) - http://www.bohemiancoding.com/sketch -->
    <title>500_0607</title>
    <desc>Created with Sketch.</desc>
    <defs></defs>
    <g id="EHR后台管理视觉效果" stroke="none" stroke-width="1" fill="none" fill-rule="evenodd">
        <g id="500页面" transform="translate(-525.000000, -156.000000)">
            <g id="Group-2" transform="translate(525.000000, 156.000000)">
                <g id="500_0607">
                    <path d="M58,290 L428.199633,290" id="Shape" stroke="#666666" stroke-width="1.5"></path>
                    <path d="M57.9203552,290.469401 C26.0080639,290.434095 0.142594963,264.580917 0.0921203302,232.668646 L37.2549825,232.668646 C37.2549825,244.081817 46.507185,253.334019 57.9203552,253.334019 C69.3335254,253.334019 78.5857279,244.081817 78.5857279,232.668646 L78.5857279,163.527586 C78.5857279,152.114415 69.3335254,142.862213 57.9203552,142.862213 C46.507185,142.862213 37.2549825,152.114415 37.2549825,163.527586 L0.0921203302,163.527586 C0.0921200224,142.867547 11.1141192,123.776884 29.0062375,113.446865 C46.8983558,103.116845 68.9423546,103.116845 86.8344728,113.446865 C104.726591,123.776884 115.74859,142.867547 115.74859,163.527586 L115.74859,232.668646 C115.698115,264.580917 89.8326464,290.434095 57.9203552,290.469401 Z" id="Shape" fill="#D9D9D9" fill-rule="nonzero"></path>
                    <polygon id="Shape" fill="#D9D9D9" fill-rule="nonzero" points="37.2549825 162.895533 0.0921203302 162.895533 0.0921203302 1.70379403 108.301361 1.70379403 108.301361 38.8666562 37.2549825 38.8666562"></polygon>
                    <path d="M331.287694,290.570163 C299.364691,290.534825 273.494798,264.664931 273.45946,232.741928 L273.45946,58.6984522 C273.45946,26.7608007 299.350043,0.870219102 331.287694,0.870219102 C363.225346,0.870219102 389.115928,26.7608007 389.115929,58.6984522 L389.115929,232.741928 C389.080591,264.664931 363.210698,290.534825 331.287694,290.570163 Z M331.287694,38.0788804 C319.880801,38.094019 310.63746,47.3373594 310.622322,58.7442531 L310.622322,232.787729 C310.622322,244.200899 319.874524,253.453102 331.287694,253.453102 C342.700865,253.453102 351.953067,244.200899 351.953067,232.787729 L351.953067,58.7442531 C351.937928,47.3373594 342.694588,38.094019 331.287694,38.0788804 Z" id="Shape" fill="#D9D9D9" fill-rule="nonzero"></path>
                    <path d="M192.547564,290.570163 C160.624561,290.534825 134.754667,264.664931 134.719329,232.741928 L134.719329,58.6984522 C134.719329,26.7608 160.609911,0.870217378 192.547564,0.870217378 C224.485216,0.870217378 250.375799,26.7608 250.375799,58.6984522 L250.375799,232.741928 C250.34046,264.664931 224.470567,290.534825 192.547564,290.570163 Z M192.547564,38.0788804 C181.14067,38.094019 171.89733,47.3373594 171.882191,58.7442531 L171.882191,232.787729 C171.882191,244.200899 181.134394,253.453102 192.547564,253.453102 C203.960734,253.453102 213.212936,244.200899 213.212936,232.787729 L213.212936,58.7442531 C213.197798,47.3373594 203.954457,38.094019 192.547564,38.0788804 Z" id="Shape" fill="#D9D9D9" fill-rule="nonzero"></path>
                    <polygon id="Shape" fill="#999999" fill-rule="nonzero" points="37.2549825 46.4421275 0.0921203302 38.55521 37.2549825 38.55521"></polygon>
                </g>
            </g>
        </g>
    </g>
</svg>