<?xml version="1.0" standalone="no"?><!DOCTYPE svg PUBLIC "-//W3C//DTD SVG 1.1//EN" "http://www.w3.org/Graphics/SVG/1.1/DTD/svg11.dtd"><svg t="1540879384496" class="icon" style="" viewBox="0 0 1024 1024" version="1.1" xmlns="http://www.w3.org/2000/svg" p-id="2017" xmlns:xlink="http://www.w3.org/1999/xlink" width="200" height="200"><defs><style type="text/css"></style></defs><path d="M656.964912 578.118777c98.518056-50.710093 165.902874-153.398875 165.902874-271.830101 0-168.746736-136.795707-305.542443-305.541421-305.542443-168.746736 0-305.542443 136.795707-305.542443 305.542443 0 117.693171 66.554761 219.825856 164.070003 270.864087-159.351359 57.111339-273.349145 209.476733-273.349145 388.474458 0 19.814013 1.397397 39.30091 4.097124 58.369712l71.497275 0c-4.291349-21.705151-6.541292-44.146312-6.541292-67.110858 0-190.017436 154.038795-344.057253 344.056231-344.057253 190.018458 0 344.056231 154.039817 344.056231 344.057253 0 22.965568-2.249943 45.404685-6.54027 67.109836l-168.75798 0.001022 239.154307 0c2.701771-19.06778 4.097124-38.555699 4.097124-58.369712C927.625574 787.637421 814.910695 635.973282 656.964912 578.118777zM276.191985 306.288676c0-133.174945 107.959434-241.135401 241.135401-241.135401 133.173923 0 241.134379 107.959434 241.134379 241.135401s-107.959434 241.135401-241.134379 241.135401C384.151419 547.424077 276.191985 439.464643 276.191985 306.288676z" p-id="2018"></path><path d="M178.102246 1024 684.374143 1023.996933 178.101223 1023.996933Z" p-id="2019"></path></svg>