<?xml version="1.0" standalone="no"?><!DOCTYPE svg PUBLIC "-//W3C//DTD SVG 1.1//EN" "http://www.w3.org/Graphics/SVG/1.1/DTD/svg11.dtd"><svg t="1540879304425" class="icon" style="" viewBox="0 0 1401 1024" version="1.1" xmlns="http://www.w3.org/2000/svg" p-id="1363" xmlns:xlink="http://www.w3.org/1999/xlink" width="273.6328125" height="200"><defs><style type="text/css"></style></defs><path d="M1211.943981 0.011c98.461942-0.249997 181.319052 73.624209 189.192968 168.686188 7.981914 96.456964-60.773347 180.710059-159.844283 196.672887-22.798755 3.68596-45.275514 3.220965-67.466275-1.753981-8.732906-1.967979-12.025871 0.572994-15.85583 7.050924-69.578253 117.32374-139.120506 234.684479-209.379751 351.614223-7.264922 12.09787 1.646982 13.92285 7.695917 18.6118 48.246482 37.294599 70.616241 86.114075 62.670327 145.384438-8.303911 61.955334-44.309524 105.298869-104.474878 127.631629-64.281309 23.837744-136.078538 4.366953-179.744069-47.065494-43.879529-51.682445-49.857464-122.942679-14.244847-180.60306 6.083935-9.842894 6.262933-14.101849-4.009957-21.474769-98.353943-70.831239-196.242892-142.306471-293.988842-213.924702-8.195912-6.012935-14.279847-7.265922-23.943742-2.719971-22.33376 10.449888-46.600499 14.459845-71.153236 10.915883-10.629886-1.538983-14.996839 1.86098-19.756788 9.913893-29.205686 49.714466-58.590371 99.320933-88.512049 148.642403-5.54794 9.161902-5.799938 14.602843 1.574983 23.872744 32.963646 41.409555 37.149601 86.650069 12.347868 133.215569-22.799755 42.769541-73.050215 68.647263-121.905691 62.276331-52.362438-6.835927-88.655048-34.896625-105.083871-84.289095-28.596693-86.149075 48.497479-171.046163 140.123495-154.47534 10.307889 1.86198 15.032839-0.96599 19.899786-9.3049 27.666703-47.388491 55.584403-94.668983 84.217095-141.51848 6.227933-10.165891 6.084935-15.462834-3.506962-23.979742-45.347513-40.087569-58.411373-102.113903-34.324631-155.837326 24.016742-53.579424 79.851142-86.221074 140.660489-82.284116 57.69538 3.75796 108.01884 43.879529 124.446663 99.57193 11.059881 37.473597 6.299932 73.300213-13.99485 106.693854-5.367942 8.804905-3.829959 12.669864 3.972957 18.289803 99.069936 71.72523 197.960873 143.701456 296.746813 215.857682 6.51293 4.759949 11.272879 6.369932 19.254793 2.003978 27.344706-14.996839 57.229385-20.902775 88.369051-17.895808 11.12988 1.073988 15.675832-2.899969 20.794776-11.559876 68.611263-115.964754 137.474523-231.78551 206.767779-347.356268 6.225933-10.379888 6.47693-15.461834-4.117956-23.514748-63.099322-47.959485-87.116064-129.958604-60.916345-203.83081C1060.368609 50.22746 1132.273837 0.226998 1211.943981 0.013z m0 0" p-id="1364"></path></svg>