<?xml version="1.0" standalone="no"?><!DOCTYPE svg PUBLIC "-//W3C//DTD SVG 1.1//EN" "http://www.w3.org/Graphics/SVG/1.1/DTD/svg11.dtd"><svg t="1540879343878" class="icon" style="" viewBox="0 0 1024 1024" version="1.1" xmlns="http://www.w3.org/2000/svg" p-id="1799" xmlns:xlink="http://www.w3.org/1999/xlink" width="200" height="200"><defs><style type="text/css"></style></defs><path d="M991.232 878.592h-34.304v-465.92c0-73.728-61.44-133.12-136.704-133.12H614.912v565.76c0 17.92-15.872 33.28-34.304 33.28s-34.304-15.36-34.304-33.28v-632.32c0-73.728-61.44-133.12-136.704-133.12H205.312c-75.264 0-136.704 59.392-136.704 133.12v664.576H34.304C15.872 877.568 0 892.928 0 910.848s15.872 33.28 34.304 33.28h955.392c18.432 0 34.304-15.36 34.304-33.28 1.536-17.92-14.336-32.256-32.768-32.256z m-615.424-133.12H239.104c-18.432 0-34.304-15.36-34.304-33.28s15.872-33.28 34.304-33.28h136.704c18.432 0 34.304 15.36 34.304 33.28s-14.336 33.28-34.304 33.28z m0-199.68H239.104c-18.432 0-34.304-15.36-34.304-33.28s15.872-33.28 34.304-33.28h136.704c18.432 0 34.304 15.36 34.304 33.28 0 18.432-14.336 33.28-34.304 33.28z m0-199.68H239.104c-18.432 0-34.304-15.36-34.304-33.28s15.872-33.28 34.304-33.28h136.704c18.432 0 34.304 15.36 34.304 33.28s-14.336 33.28-34.304 33.28z m478.72 399.36H717.824c-18.432 0-34.304-15.36-34.304-33.28s15.872-33.28 34.304-33.28h136.704c18.432 0 34.304 15.36 34.304 33.28s-15.872 33.28-34.304 33.28z m0-199.68H717.824c-18.432 0-34.304-15.36-34.304-33.28s15.872-33.28 34.304-33.28h136.704c18.432 0 34.304 15.36 34.304 33.28 0 18.432-15.872 33.28-34.304 33.28z" p-id="1800"></path></svg>