<?xml version="1.0" encoding="UTF-8"?>
<svg width="18px" height="14px" viewBox="0 0 18 14" version="1.1" xmlns="http://www.w3.org/2000/svg" xmlns:xlink="http://www.w3.org/1999/xlink">
    <!-- Generator: Sketch 49.3 (51167) - http://www.bohemiancoding.com/sketch -->
    <title>轮播图配置</title>
    <desc>Created with Sketch.</desc>
    <defs></defs>
    <g id="EHR后台管理视觉效果" stroke="none" stroke-width="1" fill="none" fill-rule="evenodd" opacity="0.600000024">
        <g id="1.1组织架构" transform="translate(-19.000000, -253.000000)">
            <g id="左侧菜单">
                <g id="轮播图配置" transform="translate(0.000000, 232.000000)">
                    <g transform="translate(16.000000, 16.000000)">
                        <g>
                            <rect id="Rectangle-9" x="0" y="0" width="24" height="24"></rect>
                            <path d="M20.5,5.5 L3.5,5.5 L3.5,18.5 L20.5,18.5 L20.5,5.5 Z M5.32142857,11.2355114 L5.32142857,7.27272727 L18.6785714,7.27272727 L18.6785714,13.2889205 L14.9825893,9.26150568 L13.7777902,7.95042614 L10.411942,10.8754261 L9.51450893,9.89673295 L8.33627232,8.61335227 L5.32142857,11.2355114 Z M10.2677455,13.3794034 L11.6262277,12.1975852 L13.6316964,10.4525568 L18.6785714,15.949858 L18.6785714,16.7272727 L5.32142857,16.7272727 L5.32142857,13.6120739 L8.19207589,11.1173295 L10.2677455,13.3794034 Z" id="Shape" fill="#FFFFFF" fill-rule="nonzero"></path>
                        </g>
                    </g>
                </g>
            </g>
        </g>
    </g>
</svg>