<?xml version="1.0" standalone="no"?><!DOCTYPE svg PUBLIC "-//W3C//DTD SVG 1.1//EN" "http://www.w3.org/Graphics/SVG/1.1/DTD/svg11.dtd"><svg t="1533698160768" class="icon" style="" viewBox="0 0 1024 1024" version="1.1" xmlns="http://www.w3.org/2000/svg" p-id="1354" xmlns:xlink="http://www.w3.org/1999/xlink" width="200" height="200"><defs><style type="text/css"></style></defs><path d="M776.3 959.3H231.8c-61.7 0-111.9-49.3-111.9-110.2V431.7c0-30.4 25-55.1 56-55.1s56 24.7 56 55.1v362.4c0 30.3 25 54.8 55.7 54.8h432.5c30.9 0 56-24.6 56-55.1V431.7c0-30.4 25-55.1 56-55.1s56 24.7 56 55.1v417.4c0 60.8-50.1 110.2-111.8 110.2" p-id="1355"></path><path d="M400 762.7c-31 0-56-24.7-56-55.2V431.8c0-30.4 25-55.2 56-55.2 30.9 0 56 24.8 56 55.2v275.8c0 30.4-25.1 55.1-56 55.1M624 762.7c-30.9 0-56-24.7-56-55.2V431.8c0-30.4 25.1-55.2 56-55.2 31 0 56 24.8 56 55.2v275.8c0 30.4-25 55.1-56 55.1M960.1 237.5c0 30.5-25 55.2-56 55.2h-183c-51.1 0-94.5-32.8-109.8-78-7.6-22.7-31.1-36.5-55.4-37l-90.6-1.8c-23.5-0.4-42.6 15.2-50.5 37-17.3 47-60.7 79.8-111.7 79.8h-183c-31 0-56-24.7-56-55.2s25-55.1 56-55.1h140.1c23.5 0 42.6-16 50.5-37.8 17.3-47.2 60.7-79.9 111.8-79.9h179.2c51.1 0 94.5 32.7 109.9 78 7.6 22.6 31.1 36.4 55.4 36.7l138.1 2.1c30.6 0.4 55.1 25 55.1 55.1v0.9z" p-id="1356"></path></svg>