<?xml version="1.0" encoding="UTF-8"?>
<svg width="20px" height="20px" viewBox="0 0 20 20" version="1.1" xmlns="http://www.w3.org/2000/svg" xmlns:xlink="http://www.w3.org/1999/xlink">
    <!-- Generator: Sketch 49.3 (51167) - http://www.bohemiancoding.com/sketch -->
    <title>Fill 1@2x</title>
    <desc>Created with Sketch.</desc>
    <defs></defs>
    <g id="设计说明" stroke="none" stroke-width="1" fill="none" fill-rule="evenodd">
        <g id="07组件/基础/弹窗" transform="translate(-372.000000, -538.000000)" fill="#FA607E">
            <g id="Group-2" transform="translate(232.000000, 478.000000)">
                <g id="Group" transform="translate(140.000000, 60.000000)">
                    <g id="Group-4">
                        <path d="M10,6.42856737 C9.42861044,6.42856737 8.85722088,5.99996587 8.85722088,5.28578174 C8.85722088,4.71438893 9.42861044,4.28578743 10,4.28578743 C10.5713896,4.28578743 11.1428929,4.71427515 11.1428929,5.42857305 C11.1428929,5.99996587 10.5713896,6.42856737 10,6.42856737 Z M10.7141801,15.0000284 C10.7141801,15.4286299 10.4285991,15.7143263 10,15.7143263 C9.57140094,15.7143263 9.28570616,15.4286299 9.28570616,15.0000284 L9.28570616,8.57146108 C9.28570616,8.14285958 9.57140094,7.85716317 10,7.85716317 C10.4285991,7.85716317 10.7141801,8.14285958 10.7141801,8.57146108 L10.7141801,15.0000284 Z M10,0 C4.42855355,0 0,4.42857874 0,10.0000569 C0,15.5714213 4.42855355,20 10,20 C15.5714465,20 20,15.5714213 20,10.0000569 C20,4.42857874 15.5714465,0 10,0 Z" id="Fill-1" transform="translate(10.000000, 10.000000) scale(1, -1) rotate(180.000000) translate(-10.000000, -10.000000) "></path>
                    </g>
                </g>
            </g>
        </g>
    </g>
</svg>