<?xml version="1.0" standalone="no"?><!DOCTYPE svg PUBLIC "-//W3C//DTD SVG 1.1//EN" "http://www.w3.org/Graphics/SVG/1.1/DTD/svg11.dtd"><svg t="1533879619845" class="icon" style="" viewBox="0 0 1024 1024" version="1.1" xmlns="http://www.w3.org/2000/svg" p-id="1383" xmlns:xlink="http://www.w3.org/1999/xlink" width="200" height="200"><defs><style type="text/css"></style></defs><path d="M942.3 294.9c-1.7-40.5-19.2-77.9-49.1-105.2L800 104.4C770.2 77 730.8 63.2 691 64.7c-40.5 1.7-77.9 19.2-105.2 49.1L115.4 627.2c-24.7 27-36.9 63.2-33.3 99.5l11 115c6.3 66.2 61.1 116.4 127.6 116.9l115.5 0.8c0.7-0.1 1.2-0.1 1.9-0.1 35.8-0.3 70-15.5 94.2-41.9L902.6 404c27.4-29.8 41.5-68.6 39.7-109.1zM695.8 173.7c0.4-0.1 1-0.1 1.5-0.1 10.8-0.1 21.1 3.9 29.1 11.2l93.2 85.3c17.3 15.8 18.5 42.8 2.5 60.3l-50.8 55.5-156.7-142.2 51.5-56.2c7.7-8.4 18.3-13.3 29.7-13.8z m-344 670.1c-3.7 4.1-9 6.5-14.5 6.5h-0.2l-115.6-0.8c-10.3-0.1-18.9-7.8-19.9-18.1l-11-115.2c-0.5-5.5 1.4-11.1 5.1-15.3L541 324.1l156.7 142.3-345.9 377.4z" p-id="1384"></path></svg>