<?xml version="1.0" encoding="UTF-8"?>
<svg width="18px" height="16px" viewBox="0 0 18 16" version="1.1" xmlns="http://www.w3.org/2000/svg" xmlns:xlink="http://www.w3.org/1999/xlink">
    <!-- Generator: Sketch 49.3 (51167) - http://www.bohemiancoding.com/sketch -->
    <title>员工关怀</title>
    <desc>Created with Sketch.</desc>
    <defs></defs>
    <g id="EHR后台管理视觉效果" stroke="none" stroke-width="1" fill="none" fill-rule="evenodd" opacity="0.600000024">
        <g id="1.1组织架构" transform="translate(-19.000000, -196.000000)">
            <g id="左侧菜单">
                <g id="员工关怀" transform="translate(0.000000, 176.000000)">
                    <g transform="translate(16.000000, 16.000000)">
                        <g>
                            <rect id="Rectangle-9" x="0" y="0" width="24" height="24"></rect>
                            <path d="M19.0586866,5.92837428 C18.1318304,5.00717637 16.8967165,4.5 15.5803725,4.5 C14.2640284,4.5 13.0268317,5.00717637 12.1020583,5.92837428 L11.9979172,6.03187966 L11.893776,5.92837428 C10.9669199,5.00717637 9.73180593,4.5 8.4154619,4.5 C7.09911786,4.5 5.8619211,5.00717637 4.93714776,5.92837428 C4.0102916,6.84957218 3.5,8.07714601 3.5,9.38545404 C3.5,10.6937621 4.0102916,11.923406 4.93714776,12.8425338 L10.8919383,18.7609716 L11.3709875,19.2370963 C11.5313649,19.3985647 11.7521441,19.5 12,19.5 C12.2478559,19.5 12.4686351,19.3985647 12.6290125,19.2370963 L19.0628522,12.8425338 C19.9897084,11.9213359 20.5,10.6937621 20.5,9.38545404 C20.5,8.07714601 19.9834599,6.84957218 19.0586866,5.92837428 Z M17.6444499,11.4390008 L11.9958344,17.0510627 L6.34930164,11.4390008 C5.80151924,10.8945625 5.49950992,10.1658846 5.49950992,9.38752415 C5.49950992,8.60916368 5.80151924,7.88048579 6.34930164,7.33604747 C6.89708405,6.79160916 7.63023769,6.49144356 8.41337907,6.49144356 C9.19652046,6.49144356 9.9296741,6.79160916 10.4774565,7.33604747 L10.5815976,7.43955286 L11.3689047,8.22205355 C11.3709875,8.22412365 11.3730703,8.22619376 11.377236,8.23033398 C11.5355305,8.38559205 11.7542269,8.48288711 11.9937515,8.48288711 C12.2457731,8.48288711 12.4728008,8.37731162 12.6331781,8.2096329 L13.5121294,7.33604747 C14.0599118,6.79160916 14.7930654,6.49144356 15.5762068,6.49144356 C16.3593482,6.49144356 17.0925018,6.79160916 17.6402842,7.33604747 C18.1880667,7.88048579 18.490076,8.60916368 18.490076,9.38752415 C18.490076,10.1658846 18.1922323,10.8924924 17.6444499,11.4390008 Z" id="Shape" fill="#FFFFFF" fill-rule="nonzero"></path>
                        </g>
                    </g>
                </g>
            </g>
        </g>
    </g>
</svg>