<?xml version="1.0" encoding="UTF-8"?>
<svg width="18px" height="18px" viewBox="0 0 18 18" version="1.1" xmlns="http://www.w3.org/2000/svg" xmlns:xlink="http://www.w3.org/1999/xlink">
    <!-- Generator: Sketch 49.3 (51167) - http://www.bohemiancoding.com/sketch -->
    <title>help-icon</title>
    <desc>Created with Sketch.</desc>
    <defs></defs>
    <g id="EHR后台管理视觉效果" stroke="none" stroke-width="1" fill="none" fill-rule="evenodd">
        <g id="2.3.1考勤打卡/考勤设置" transform="translate(-321.000000, -525.000000)" fill="#999999">
            <g id="考勤人员范围-copy-2" transform="translate(224.000000, 502.000000)">
                <g id="help-icon" transform="translate(98.000000, 24.000000)">
                    <g id="Group-4" transform="translate(-1.000000, -1.000000)">
                        <path d="M9,17.5 C4.30557963,17.5 0.5,13.6944204 0.5,9 C0.5,4.30557963 4.30557963,0.5 9,0.5 C13.6944204,0.5 17.5,4.30557963 17.5,9 C17.5,13.6944204 13.6944204,17.5 9,17.5 Z M9,16.5 C13.1421356,16.5 16.5,13.1421356 16.5,9 C16.5,4.85786438 13.1421356,1.5 9,1.5 C4.85786438,1.5 1.5,4.85786438 1.5,9 C1.5,13.1421356 4.85786438,16.5 9,16.5 Z" id="Oval-3" fill-rule="nonzero"></path>
                        <g id="Group-2" transform="translate(5.800000, 4.200000)">
                            <path d="M3.16483516,0 C2.18901099,0 1.42417582,0.276923077 0.857142857,0.830769231 C0.276923077,1.38461538 0,2.14945055 0,3.12527473 L1.5032967,3.12527473 C1.5032967,2.57142857 1.60879121,2.13626374 1.83296703,1.83296703 C2.08351648,1.46373626 2.49230769,1.29230769 3.07252747,1.29230769 C3.52087912,1.29230769 3.87692308,1.41098901 4.12747253,1.66153846 C4.36483516,1.91208791 4.4967033,2.25494505 4.4967033,2.69010989 C4.4967033,3.01978022 4.37802198,3.33626374 4.14065934,3.62637363 L3.98241758,3.81098901 C3.12527473,4.57582418 2.61098901,5.12967033 2.43956044,5.48571429 C2.25494505,5.84175824 2.17582418,6.27692308 2.17582418,6.77802198 L2.17582418,6.96263736 L3.69230769,6.96263736 L3.69230769,6.77802198 C3.69230769,6.46153846 3.75824176,6.18461538 3.89010989,5.92087912 C4.00879121,5.68351648 4.18021978,5.45934066 4.41758242,5.26153846 C5.05054945,4.70769231 5.43296703,4.35164835 5.55164835,4.21978022 C5.86813187,3.7978022 6.03956044,3.25714286 6.03956044,2.5978022 C6.03956044,1.79340659 5.77582418,1.16043956 5.24835165,0.698901099 C4.72087912,0.224175824 4.02197802,0 3.16483516,0 Z M2.92747253,7.60879121 C2.63736264,7.60879121 2.4,7.7010989 2.2021978,7.88571429 C2.0043956,8.07032967 1.91208791,8.30769231 1.91208791,8.5978022 C1.91208791,8.88791209 2.0043956,9.12527473 2.2021978,9.30989011 C2.4,9.49450549 2.63736264,9.6 2.92747253,9.6 C3.21758242,9.6 3.45494505,9.50769231 3.65274725,9.32307692 C3.85054945,9.13846154 3.95604396,8.88791209 3.95604396,8.5978022 C3.95604396,8.30769231 3.85054945,8.07032967 3.66593407,7.88571429 C3.46813187,7.7010989 3.21758242,7.60879121 2.92747253,7.60879121 Z" id="？"></path>
                        </g>
                    </g>
                </g>
            </g>
        </g>
    </g>
</svg>