<?xml version="1.0" encoding="UTF-8"?>
<svg width="18px" height="18px" viewBox="0 0 18 18" version="1.1" xmlns="http://www.w3.org/2000/svg" xmlns:xlink="http://www.w3.org/1999/xlink">
    <!-- Generator: Sketch 49.3 (51167) - http://www.bohemiancoding.com/sketch -->
    <title>组织架构</title>
    <desc>Created with Sketch.</desc>
    <defs></defs>
    <g id="EHR后台管理视觉效果" stroke="none" stroke-width="1" fill="none" fill-rule="evenodd">
        <g id="1.1组织架构" transform="translate(-19.000000, -83.000000)">
            <g id="左侧菜单">
                <g id="组织架构" transform="translate(0.000000, 64.000000)">
                    <g transform="translate(16.000000, 16.000000)">
                        <g>
                            <rect id="Rectangle-9" x="0" y="0" width="24" height="24"></rect>
                            <g id="Group" transform="translate(3.000000, 3.000000)">
                                <rect id="Rectangle-2" fill="#262A39" opacity="0" x="0" y="0" width="19" height="19"></rect>
                                <g id="组织" fill="#FFFFFF" fill-rule="nonzero">
                                    <path d="M12.0021196,0.5 L6.02063811,0.5 L6.02063811,6.49284676 L8.1200357,6.49284676 L8.1200357,7.77919973 L2.9597278,7.77919973 C2.95024543,7.77919973 2.94265953,7.78680004 2.94076305,7.79630044 L2.63922356,7.79630044 C2.62784471,7.79630044 2.62025881,7.80390075 2.62025881,7.81530122 L2.62025881,11.5071532 L0.5,11.5071532 L0.5,17.5 L6.48148148,17.5 L6.48148148,11.5052532 L4.44087461,11.5052532 L4.44087461,9.60327484 L13.5818831,9.60327484 L13.5818831,11.4653515 L11.5185185,11.4653515 L11.5185185,17.4581983 L17.5,17.4581983 L17.5,11.4653515 L15.4024989,11.4653515 L15.4024989,7.80200067 C15.4024989,7.7906002 15.394913,7.78299989 15.3835341,7.78299989 L15.1085453,7.78299989 C15.1047523,7.78109981 15.1028559,7.77919973 15.0990629,7.77919973 L9.94065149,7.77919973 L9.94065149,6.49284676 L12.0021196,6.49284676 L12.0021196,0.5 Z M7.8412539,4.66877166 L7.8412539,2.32407511 L10.1815038,2.32407511 L10.1815038,4.66877166 L7.8412539,4.66877166 Z M13.3391343,15.6360232 L13.3391343,13.2894266 L15.6793842,13.2894266 L15.6793842,15.6341232 L13.3391343,15.6341232 L13.3391343,15.6360232 Z M2.3206158,15.6759249 L2.3206158,13.3293283 L4.66086568,13.3293283 L4.66086568,15.6740248 L2.3206158,15.6740248 L2.3206158,15.6759249 Z" id="Shape"></path>
                                </g>
                            </g>
                        </g>
                    </g>
                </g>
            </g>
        </g>
    </g>
</svg>