<?xml version="1.0" encoding="UTF-8"?>
<svg width="18px" height="18px" viewBox="0 0 18 18" version="1.1" xmlns="http://www.w3.org/2000/svg" xmlns:xlink="http://www.w3.org/1999/xlink">
    <!-- Generator: Sketch 49.3 (51167) - http://www.bohemiancoding.com/sketch -->
    <title>考勤打卡</title>
    <desc>Created with Sketch.</desc>
    <defs></defs>
    <g id="EHR后台管理视觉效果" stroke="none" stroke-width="1" fill="none" fill-rule="evenodd" opacity="0.600000024">
        <g id="1.1组织架构" transform="translate(-19.000000, -139.000000)">
            <g id="左侧菜单">
                <g id="考勤打卡" transform="translate(0.000000, 120.000000)">
                    <g transform="translate(16.000000, 16.000000)">
                        <g>
                            <rect id="Rectangle-9" opacity="0.300000012" x="0" y="0" width="24" height="24"></rect>
                            <path d="M16.6340394,5.46753653 L20.518137,5.46753653 L20.518137,7.50700321 L20.5113926,7.50700321 L20.5113926,18.3987791 L20.518137,18.3987791 L20.518137,20.4382458 L5.51946622,20.4382458 L5.51946622,20.4404064 L3.47999954,20.4404064 L3.47999954,5.47131292 L4.1299692,5.47131292 L4.1299692,5.46753653 L7.4181845,5.46753653 L7.4181845,3.56097055 L9.45765118,3.56097055 L9.45765118,5.46753653 L14.5945727,5.46753653 L14.5945727,3.55999756 L16.6340394,3.55999756 L16.6340394,5.46753653 Z M16.6340394,7.50700321 L16.6340394,8.77516063 L14.5945727,8.77516063 L14.5945727,7.50700321 L9.45765118,7.50700321 L9.45765118,8.77613362 L7.4181845,8.77613362 L7.4181845,7.50700321 L5.51946622,7.50700321 L5.51946622,18.3987791 L18.471926,18.3987791 L18.471926,7.50700321 L16.6340394,7.50700321 Z M16.2302964,12.0530635 L11.0028238,17.4788947 L10.9987206,17.4746458 L10.9741014,17.5001391 L7.77360792,14.1753835 L9.16459161,12.7328858 L10.9782046,14.6151435 L14.8372611,10.6105657 L16.2302964,12.0530635 Z" id="Combined-Shape" fill="#FFFFFF" fill-rule="nonzero"></path>
                        </g>
                    </g>
                </g>
            </g>
        </g>
    </g>
</svg>